<?xml version="1.0" encoding="us-ascii" standalone="no"?><svg xmlns="http://www.w3.org/2000/svg" xmlns:xlink="http://www.w3.org/1999/xlink" contentStyleType="text/css" height="578.4px" preserveAspectRatio="none" style="width:790px;height:578px;background:#FFFFFF;" version="1.1" viewBox="0 0 790 578" width="790.2px" zoomAndPan="magnify"><defs/><g><!--class Type--><g id="elem_Type"><rect codeLine="4" fill="#F1F1F1" height="188.9705" id="Type" rx="1.5" ry="1.5" style="stroke:#181818;stroke-width:0.3;" width="183" x="4.2" y="385.494"/><ellipse cx="83.55" cy="395.094" fill="#EB937F" rx="6.6" ry="6.6" style="stroke:#181818;stroke-width:0.6;"/><path d="M81.3656,398.994 L81.3656,391.7096 L85.9594,391.7096 L85.9594,392.9846 L82.7906,392.9846 L82.7906,394.5784 L85.8,394.5784 L85.8,395.8534 L82.7906,395.8534 L82.7906,397.719 L85.9594,397.719 L85.9594,398.994 L81.3656,398.994 Z " fill="#000000"/><text fill="#000000" font-family="sans-serif" font-size="8.4" lengthAdjust="spacing" textLength="19.2" x="95.85" y="398.3532">Type</text><line style="stroke:#181818;stroke-width:0.3;" x1="4.8" x2="186.6" y1="404.694" y2="404.694"/><text fill="#000000" font-family="sans-serif" font-size="8.4" lengthAdjust="spacing" textLength="147" x="7.8" y="416.0736">ARTICLE_JOURNAL = "article-journal"</text><text fill="#000000" font-family="sans-serif" font-size="8.4" lengthAdjust="spacing" textLength="175.8" x="7.8" y="427.5143">ARTICLE_NEWSPAPER = "article-newspaper"</text><text fill="#000000" font-family="sans-serif" font-size="8.4" lengthAdjust="spacing" textLength="60" x="7.8" y="438.9551">BOOK = "book"</text><text fill="#000000" font-family="sans-serif" font-size="8.4" lengthAdjust="spacing" textLength="84.6" x="7.8" y="450.3958">CHAPTER = "chapter"</text><text fill="#000000" font-family="sans-serif" font-size="8.4" lengthAdjust="spacing" textLength="172.2" x="7.8" y="461.8366">CONFERENCE_PAPER = "paper-conference"</text><text fill="#000000" font-family="sans-serif" font-size="8.4" lengthAdjust="spacing" textLength="82.8" x="7.8" y="473.2773">DATASET = "dataset"</text><text fill="#000000" font-family="sans-serif" font-size="8.4" lengthAdjust="spacing" textLength="124.8" x="7.8" y="484.7181">DISSERTATION = "dissertation"</text><text fill="#000000" font-family="sans-serif" font-size="8.4" lengthAdjust="spacing" textLength="117" x="7.8" y="496.1588">MANUSCRIPT = "manuscript"</text><text fill="#000000" font-family="sans-serif" font-size="8.4" lengthAdjust="spacing" textLength="73.8" x="7.8" y="507.5996">REPORT = "report"</text><text fill="#000000" font-family="sans-serif" font-size="8.4" lengthAdjust="spacing" textLength="73.8" x="7.8" y="519.0403">REVIEW = "review"</text><text fill="#000000" font-family="sans-serif" font-size="8.4" lengthAdjust="spacing" textLength="123.6" x="7.8" y="530.4811">REVIEW_BOOK = "review-book"</text><text fill="#000000" font-family="sans-serif" font-size="8.4" lengthAdjust="spacing" textLength="60.6" x="7.8" y="541.9218">SONG = "song"</text><text fill="#000000" font-family="sans-serif" font-size="8.4" lengthAdjust="spacing" textLength="76.2" x="7.8" y="553.3626">SPEECH = "speech"</text><text fill="#000000" font-family="sans-serif" font-size="8.4" lengthAdjust="spacing" textLength="69" x="7.8" y="564.8033">THESIS = "thesis"</text><line style="stroke:#181818;stroke-width:0.3;" x1="4.8" x2="186.6" y1="569.6645" y2="569.6645"/></g><!--class Status--><g id="elem_Status"><rect codeLine="21" fill="#F1F1F1" height="86.0038" id="Status" rx="1.5" ry="1.5" style="stroke:#181818;stroke-width:0.3;" width="199.8" x="208.2" y="436.974"/><ellipse cx="292.95" cy="446.574" fill="#EB937F" rx="6.6" ry="6.6" style="stroke:#181818;stroke-width:0.6;"/><path d="M290.7656,450.474 L290.7656,443.1896 L295.3594,443.1896 L295.3594,444.4646 L292.1906,444.4646 L292.1906,446.0584 L295.2,446.0584 L295.2,447.3334 L292.1906,447.3334 L292.1906,449.199 L295.3594,449.199 L295.3594,450.474 L290.7656,450.474 Z " fill="#000000"/><text fill="#000000" font-family="sans-serif" font-size="8.4" lengthAdjust="spacing" textLength="25.2" x="305.25" y="449.8332">Status</text><line style="stroke:#181818;stroke-width:0.3;" x1="208.8" x2="407.4" y1="456.174" y2="456.174"/><text fill="#000000" font-family="sans-serif" font-size="8.4" lengthAdjust="spacing" textLength="102" x="211.8" y="467.5536">PUBLISHED = "Published"</text><text fill="#000000" font-family="sans-serif" font-size="8.4" lengthAdjust="spacing" textLength="192.6" x="211.8" y="478.9943">EPUB_AHEAD_OF_PRINT = "Epub ahead of print"</text><text fill="#000000" font-family="sans-serif" font-size="8.4" lengthAdjust="spacing" textLength="87.6" x="211.8" y="490.4351">IN_PRESS = "In press"</text><text fill="#000000" font-family="sans-serif" font-size="8.4" lengthAdjust="spacing" textLength="95.4" x="211.8" y="501.8758">ACCEPTED = "Accepted"</text><text fill="#000000" font-family="sans-serif" font-size="8.4" lengthAdjust="spacing" textLength="106.2" x="211.8" y="513.3166">SUBMITTED = "Submitted"</text><line style="stroke:#181818;stroke-width:0.3;" x1="208.8" x2="407.4" y1="518.1778" y2="518.1778"/></g><!--class Language--><g id="elem_Language"><rect codeLine="29" fill="#F1F1F1" height="166.089" id="Language" rx="1.5" ry="1.5" style="stroke:#181818;stroke-width:0.3;" width="93.6" x="429.3" y="396.936"/><ellipse cx="453.69" cy="406.536" fill="#EB937F" rx="6.6" ry="6.6" style="stroke:#181818;stroke-width:0.6;"/><path d="M451.5056,410.436 L451.5056,403.1516 L456.0994,403.1516 L456.0994,404.4266 L452.9306,404.4266 L452.9306,406.0204 L455.94,406.0204 L455.94,407.2954 L452.9306,407.2954 L452.9306,409.161 L456.0994,409.161 L456.0994,410.436 L451.5056,410.436 Z " fill="#000000"/><text fill="#000000" font-family="sans-serif" font-size="8.4" lengthAdjust="spacing" textLength="40.2" x="465.51" y="409.7952">Language</text><line style="stroke:#181818;stroke-width:0.3;" x1="429.9" x2="522.3" y1="416.136" y2="416.136"/><text fill="#000000" font-family="sans-serif" font-size="8.4" lengthAdjust="spacing" textLength="67.8" x="432.9" y="427.5156">ENGLISH = "eng"</text><text fill="#000000" font-family="sans-serif" font-size="8.4" lengthAdjust="spacing" textLength="69.6" x="432.9" y="438.9563">SWEDISH = "swe"</text><text fill="#000000" font-family="sans-serif" font-size="8.4" lengthAdjust="spacing" textLength="64.2" x="432.9" y="450.3971">DANISH = "dan"</text><text fill="#000000" font-family="sans-serif" font-size="8.4" lengthAdjust="spacing" textLength="51" x="432.9" y="461.8378">LATIN = "lat"</text><text fill="#000000" font-family="sans-serif" font-size="8.4" lengthAdjust="spacing" textLength="72" x="432.9" y="473.2786">ICELANDIC = "ice"</text><text fill="#000000" font-family="sans-serif" font-size="8.4" lengthAdjust="spacing" textLength="65.4" x="432.9" y="484.7193">FAROESE = "fao"</text><text fill="#000000" font-family="sans-serif" font-size="8.4" lengthAdjust="spacing" textLength="86.4" x="432.9" y="496.1601">GREENLANDIC = "kal"</text><text fill="#000000" font-family="sans-serif" font-size="8.4" lengthAdjust="spacing" textLength="61.8" x="432.9" y="507.6008">FINNISH = "fin"</text><text fill="#000000" font-family="sans-serif" font-size="8.4" lengthAdjust="spacing" textLength="82.8" x="432.9" y="519.0416">NORWEGIAN = "nor"</text><text fill="#000000" font-family="sans-serif" font-size="8.4" lengthAdjust="spacing" textLength="66.6" x="432.9" y="530.4823">SPANISH = "spa"</text><text fill="#000000" font-family="sans-serif" font-size="8.4" lengthAdjust="spacing" textLength="83.4" x="432.9" y="541.9231">HUNGARIAN = "hun"</text><text fill="#000000" font-family="sans-serif" font-size="8.4" lengthAdjust="spacing" textLength="66.6" x="432.9" y="553.3638">GERMAN = "ger"</text><line style="stroke:#181818;stroke-width:0.3;" x1="429.9" x2="522.3" y1="558.225" y2="558.225"/></g><!--class publication--><g id="elem_publication"><rect codeLine="48" fill="#F1F1F1" height="246.1743" id="publication" rx="1.5" ry="1.5" style="stroke:#181818;stroke-width:0.3;" width="154.8" x="230.7" y="103.32"/><ellipse cx="282.75" cy="112.92" fill="#ADD1B2" rx="6.6" ry="6.6" style="stroke:#181818;stroke-width:0.6;"/><path d="M282.4313,117.0731 Q281.3812,117.0731 280.6969,116.6325 Q280.0219,116.1825 279.6844,115.3763 Q279.3563,114.5606 279.3563,113.4825 Q279.3563,112.2638 279.75,111.3919 Q280.1438,110.52 280.9125,110.0513 Q281.6813,109.5825 282.8063,109.5825 Q283.3406,109.5825 283.7438,109.695 Q284.1469,109.7981 284.5594,110.0044 L284.0719,111.2138 Q283.6969,111.0263 283.3688,110.9513 Q283.05,110.8763 282.7594,110.8763 Q282.0563,110.8763 281.6344,111.195 Q281.2125,111.5138 281.0344,112.0856 Q280.8563,112.6575 280.8563,113.4169 Q280.8563,114.6263 281.2875,115.2075 Q281.7188,115.7794 282.675,115.7794 Q283.0313,115.7794 283.4063,115.6856 Q283.7813,115.5919 284.2781,115.3669 L284.2781,116.6981 Q283.8375,116.8856 283.3594,116.9794 Q282.8906,117.0731 282.4313,117.0731 Z " fill="#000000"/><text fill="#000000" font-family="sans-serif" font-size="8.4" lengthAdjust="spacing" textLength="45.6" x="295.05" y="116.1792">publication</text><line style="stroke:#181818;stroke-width:0.3;" x1="231.3" x2="384.9" y1="122.52" y2="122.52"/><rect fill="none" height="3.6" style="stroke:#C82930;stroke-width:0.6;" width="3.6" x="235.5" y="129.7404"/><text fill="#000000" font-family="sans-serif" font-size="8.4" lengthAdjust="spacing" textLength="54.6" x="242.7" y="133.8996">abstract TEXT</text><rect fill="none" height="3.6" style="stroke:#C82930;stroke-width:0.6;" width="3.6" x="235.5" y="141.1811"/><text fill="#000000" font-family="sans-serif" font-size="8.4" lengthAdjust="spacing" textLength="79.2" x="242.7" y="145.3403">container_title TEXT</text><rect fill="none" height="3.6" style="stroke:#C82930;stroke-width:0.6;" width="3.6" x="235.5" y="152.6219"/><text fill="#000000" font-family="sans-serif" font-size="8.4" lengthAdjust="spacing" textLength="93.6" x="242.7" y="156.7811">diva_id TEXT NOT NULL</text><rect fill="none" height="3.6" style="stroke:#C82930;stroke-width:0.6;" width="3.6" x="235.5" y="164.0626"/><text fill="#000000" font-family="sans-serif" font-size="8.4" lengthAdjust="spacing" textLength="34.2" x="242.7" y="168.2218">doi TEXT</text><rect fill="none" height="3.6" style="stroke:#C82930;stroke-width:0.6;" width="3.6" x="235.5" y="175.5034"/><text fill="#000000" font-family="sans-serif" font-size="8.4" lengthAdjust="spacing" textLength="37.8" x="242.7" y="179.6626">issn TEXT</text><rect fill="none" height="3.6" style="stroke:#C82930;stroke-width:0.6;" width="3.6" x="235.5" y="186.9441"/><text fill="#000000" font-family="sans-serif" font-size="8.4" lengthAdjust="spacing" textLength="39.6" x="242.7" y="191.1033">note TEXT</text><rect fill="none" height="3.6" style="stroke:#C82930;stroke-width:0.6;" width="3.6" x="235.5" y="198.3849"/><text fill="#000000" font-family="sans-serif" font-size="8.4" lengthAdjust="spacing" textLength="54" x="242.7" y="202.5441">number TEXT</text><rect fill="none" height="3.6" style="stroke:#C82930;stroke-width:0.6;" width="3.6" x="235.5" y="209.8256"/><text fill="#000000" font-family="sans-serif" font-size="8.4" lengthAdjust="spacing" textLength="93.6" x="242.7" y="213.9848">number_of_pages TEXT</text><rect fill="none" height="3.6" style="stroke:#C82930;stroke-width:0.6;" width="3.6" x="235.5" y="221.2664"/><text fill="#000000" font-family="sans-serif" font-size="8.4" lengthAdjust="spacing" textLength="42" x="242.7" y="225.4256">page TEXT</text><rect fill="none" height="3.6" style="stroke:#C82930;stroke-width:0.6;" width="3.6" x="235.5" y="232.7071"/><text fill="#000000" font-family="sans-serif" font-size="8.4" lengthAdjust="spacing" textLength="67.2" x="242.7" y="236.8663">pubmed_id TEXT</text><rect fill="none" height="3.6" style="stroke:#C82930;stroke-width:0.6;" width="3.6" x="235.5" y="244.1479"/><text fill="#000000" font-family="sans-serif" font-size="8.4" lengthAdjust="spacing" textLength="139.2" x="242.7" y="248.3071">publication_date: datetime = None</text><rect fill="none" height="3.6" style="stroke:#C82930;stroke-width:0.6;" width="3.6" x="235.5" y="255.5886"/><text fill="#000000" font-family="sans-serif" font-size="8.4" lengthAdjust="spacing" textLength="60.6" x="242.7" y="259.7478">publisher TEXT</text><rect fill="none" height="3.6" style="stroke:#C82930;stroke-width:0.6;" width="3.6" x="235.5" y="267.0294"/><text fill="#000000" font-family="sans-serif" font-size="8.4" lengthAdjust="spacing" textLength="64.2" x="242.7" y="271.1886">supervisor TEXT</text><rect fill="none" height="3.6" style="stroke:#C82930;stroke-width:0.6;" width="3.6" x="235.5" y="278.4701"/><text fill="#000000" font-family="sans-serif" font-size="8.4" lengthAdjust="spacing" textLength="37.2" x="242.7" y="282.6293">title TEXT</text><rect fill="none" height="3.6" style="stroke:#C82930;stroke-width:0.6;" width="3.6" x="235.5" y="289.9109"/><text fill="#000000" font-family="sans-serif" font-size="8.4" lengthAdjust="spacing" textLength="72.6" x="242.7" y="294.0701">type: Type = None</text><rect fill="none" height="3.6" style="stroke:#C82930;stroke-width:0.6;" width="3.6" x="235.5" y="301.3516"/><text fill="#000000" font-family="sans-serif" font-size="8.4" lengthAdjust="spacing" textLength="99.6" x="242.7" y="305.5108">urn_nbn TEXT NOT NULL</text><rect fill="none" height="3.6" style="stroke:#C82930;stroke-width:0.6;" width="3.6" x="235.5" y="312.7924"/><text fill="#000000" font-family="sans-serif" font-size="8.4" lengthAdjust="spacing" textLength="51" x="242.7" y="316.9516">volume TEXT</text><line style="stroke:#181818;stroke-width:0.3;" x1="231.3" x2="384.9" y1="321.8128" y2="321.8128"/><rect fill="#F24D5C" height="3.6" style="stroke:#C82930;stroke-width:0.6;" width="3.6" x="235.5" y="329.0331"/><text fill="#000000" font-family="sans-serif" font-size="8.4" lengthAdjust="spacing" textLength="90.6" x="242.7" y="333.1923">language varchar(100)</text><rect fill="#F24D5C" height="3.6" style="stroke:#C82930;stroke-width:0.6;" width="3.6" x="235.5" y="340.4739"/><text fill="#000000" font-family="sans-serif" font-size="8.4" lengthAdjust="spacing" textLength="79.2" x="242.7" y="344.6331">status: varchar(100)</text></g><!--class funder--><g id="elem_funder"><rect codeLine="70" fill="#F1F1F1" height="51.6815" id="funder" rx="1.5" ry="1.5" style="stroke:#181818;stroke-width:0.3;" width="136.8" x="72.9" y="200.568"/><ellipse cx="124.95" cy="210.168" fill="#ADD1B2" rx="6.6" ry="6.6" style="stroke:#181818;stroke-width:0.6;"/><path d="M124.6313,214.3211 Q123.5813,214.3211 122.8969,213.8805 Q122.2219,213.4305 121.8844,212.6243 Q121.5562,211.8086 121.5562,210.7305 Q121.5562,209.5118 121.95,208.6399 Q122.3438,207.768 123.1125,207.2993 Q123.8813,206.8305 125.0063,206.8305 Q125.5406,206.8305 125.9438,206.943 Q126.3469,207.0461 126.7594,207.2524 L126.2719,208.4618 Q125.8969,208.2743 125.5688,208.1993 Q125.25,208.1243 124.9594,208.1243 Q124.2563,208.1243 123.8344,208.443 Q123.4125,208.7618 123.2344,209.3336 Q123.0562,209.9055 123.0562,210.6649 Q123.0562,211.8743 123.4875,212.4555 Q123.9187,213.0274 124.875,213.0274 Q125.2312,213.0274 125.6062,212.9336 Q125.9812,212.8399 126.4781,212.6149 L126.4781,213.9461 Q126.0375,214.1336 125.5594,214.2274 Q125.0906,214.3211 124.6313,214.3211 Z " fill="#000000"/><text fill="#000000" font-family="sans-serif" font-size="8.4" lengthAdjust="spacing" textLength="27.6" x="137.25" y="213.4272">funder</text><line style="stroke:#181818;stroke-width:0.3;" x1="73.5" x2="209.1" y1="219.768" y2="219.768"/><rect fill="none" height="3.6" style="stroke:#C82930;stroke-width:0.6;" width="3.6" x="77.7" y="226.9884"/><text fill="#000000" font-family="sans-serif" font-size="8.4" lengthAdjust="spacing" textLength="121.2" x="84.9" y="231.1476">id PRIMARY AUTOINCREMENT</text><rect fill="none" height="3.6" style="stroke:#C82930;stroke-width:0.6;" width="3.6" x="77.7" y="238.4291"/><text fill="#000000" font-family="sans-serif" font-size="8.4" lengthAdjust="spacing" textLength="88.2" x="84.9" y="242.5883">name TEXT NOT NULL</text><line style="stroke:#181818;stroke-width:0.3;" x1="73.5" x2="209.1" y1="247.4495" y2="247.4495"/></g><!--class publication_funder_linking--><g id="elem_publication_funder_linking"><rect codeLine="75" fill="#F1F1F1" height="63.1223" id="publication_funder_linking" rx="1.5" ry="1.5" style="stroke:#181818;stroke-width:0.3;" width="127.2" x="89.1" y="4.2"/><ellipse cx="98.1" cy="13.8" fill="#ADD1B2" rx="6.6" ry="6.6" style="stroke:#181818;stroke-width:0.6;"/><path d="M97.7813,17.9531 Q96.7313,17.9531 96.0469,17.5125 Q95.3719,17.0625 95.0344,16.2562 Q94.7063,15.4406 94.7063,14.3625 Q94.7063,13.1437 95.1,12.2719 Q95.4937,11.4 96.2625,10.9313 Q97.0313,10.4625 98.1563,10.4625 Q98.6906,10.4625 99.0938,10.575 Q99.4969,10.6781 99.9094,10.8844 L99.4219,12.0938 Q99.0469,11.9063 98.7188,11.8312 Q98.4,11.7563 98.1094,11.7563 Q97.4063,11.7563 96.9844,12.075 Q96.5625,12.3937 96.3844,12.9656 Q96.2063,13.5375 96.2063,14.2969 Q96.2063,15.5063 96.6375,16.0875 Q97.0688,16.6594 98.025,16.6594 Q98.3813,16.6594 98.7563,16.5656 Q99.1313,16.4719 99.6281,16.2469 L99.6281,17.5781 Q99.1875,17.7656 98.7094,17.8594 Q98.2406,17.9531 97.7813,17.9531 Z " fill="#000000"/><text fill="#000000" font-family="sans-serif" font-size="8.4" lengthAdjust="spacing" textLength="108" x="106.5" y="17.0592">publication_funder_linking</text><line style="stroke:#181818;stroke-width:0.3;" x1="89.7" x2="215.7" y1="23.4" y2="23.4"/><rect fill="none" height="3.6" style="stroke:#C82930;stroke-width:0.6;" width="3.6" x="93.9" y="30.6204"/><text fill="#000000" font-family="sans-serif" font-size="8.4" lengthAdjust="spacing" textLength="101.4" x="101.1" y="34.7796">publication INT PRIMARY</text><rect fill="none" height="3.6" style="stroke:#C82930;stroke-width:0.6;" width="3.6" x="93.9" y="42.0611"/><text fill="#000000" font-family="sans-serif" font-size="8.4" lengthAdjust="spacing" textLength="83.4" x="101.1" y="46.2203">funder INT PRIMARY</text><text fill="#000000" font-family="sans-serif" font-size="8.4" lengthAdjust="spacing" textLength="57" x="101.1" y="57.6611">composite key</text><line style="stroke:#181818;stroke-width:0.3;" x1="89.7" x2="215.7" y1="62.5223" y2="62.5223"/></g><!--class affiliation--><g id="elem_affiliation"><rect codeLine="82" fill="#F1F1F1" height="63.1223" id="affiliation" rx="1.5" ry="1.5" style="stroke:#181818;stroke-width:0.3;" width="103.8" x="682.2" y="194.844"/><ellipse cx="712.35" cy="204.444" fill="#ADD1B2" rx="6.6" ry="6.6" style="stroke:#181818;stroke-width:0.6;"/><path d="M712.0313,208.5971 Q710.9812,208.5971 710.2969,208.1565 Q709.6219,207.7065 709.2844,206.9003 Q708.9563,206.0846 708.9563,205.0065 Q708.9563,203.7878 709.35,202.9159 Q709.7438,202.044 710.5125,201.5753 Q711.2813,201.1065 712.4063,201.1065 Q712.9406,201.1065 713.3438,201.219 Q713.7469,201.3221 714.1594,201.5284 L713.6719,202.7378 Q713.2969,202.5503 712.9688,202.4753 Q712.65,202.4003 712.3594,202.4003 Q711.6563,202.4003 711.2344,202.719 Q710.8125,203.0378 710.6344,203.6096 Q710.4563,204.1815 710.4563,204.9409 Q710.4563,206.1503 710.8875,206.7315 Q711.3188,207.3034 712.275,207.3034 Q712.6313,207.3034 713.0063,207.2096 Q713.3813,207.1159 713.8781,206.8909 L713.8781,208.2221 Q713.4375,208.4096 712.9594,208.5034 Q712.4906,208.5971 712.0313,208.5971 Z " fill="#000000"/><text fill="#000000" font-family="sans-serif" font-size="8.4" lengthAdjust="spacing" textLength="38.4" x="724.65" y="207.7032">affiliation</text><line style="stroke:#181818;stroke-width:0.3;" x1="682.8" x2="785.4" y1="214.044" y2="214.044"/><rect fill="none" height="3.6" style="stroke:#C82930;stroke-width:0.6;" width="3.6" x="687" y="221.2644"/><text fill="#000000" font-family="sans-serif" font-size="8.4" lengthAdjust="spacing" textLength="78" x="694.2" y="225.4236">index INT PRIMARY</text><rect fill="none" height="3.6" style="stroke:#C82930;stroke-width:0.6;" width="3.6" x="687" y="232.7051"/><text fill="#000000" font-family="sans-serif" font-size="8.4" lengthAdjust="spacing" textLength="24.6" x="694.2" y="236.8643">id INT</text><rect fill="none" height="3.6" style="stroke:#C82930;stroke-width:0.6;" width="3.6" x="687" y="244.1459"/><text fill="#000000" font-family="sans-serif" font-size="8.4" lengthAdjust="spacing" textLength="88.2" x="694.2" y="248.3051">name TEXT NOT NULL</text><line style="stroke:#181818;stroke-width:0.3;" x1="682.8" x2="785.4" y1="253.1663" y2="253.1663"/></g><!--class author--><g id="elem_author"><rect codeLine="88" fill="#F1F1F1" height="63.1223" id="author" rx="1.5" ry="1.5" style="stroke:#181818;stroke-width:0.3;" width="88.2" x="573" y="194.844"/><ellipse cx="601.05" cy="204.444" fill="#ADD1B2" rx="6.6" ry="6.6" style="stroke:#181818;stroke-width:0.6;"/><path d="M600.7312,208.5971 Q599.6813,208.5971 598.9969,208.1565 Q598.3219,207.7065 597.9844,206.9003 Q597.6563,206.0846 597.6563,205.0065 Q597.6563,203.7878 598.05,202.9159 Q598.4438,202.044 599.2125,201.5753 Q599.9812,201.1065 601.1062,201.1065 Q601.6406,201.1065 602.0437,201.219 Q602.4469,201.3221 602.8594,201.5284 L602.3719,202.7378 Q601.9969,202.5503 601.6687,202.4753 Q601.35,202.4003 601.0594,202.4003 Q600.3562,202.4003 599.9344,202.719 Q599.5125,203.0378 599.3344,203.6096 Q599.1563,204.1815 599.1563,204.9409 Q599.1563,206.1503 599.5875,206.7315 Q600.0188,207.3034 600.975,207.3034 Q601.3313,207.3034 601.7063,207.2096 Q602.0813,207.1159 602.5781,206.8909 L602.5781,208.2221 Q602.1375,208.4096 601.6594,208.5034 Q601.1906,208.5971 600.7312,208.5971 Z " fill="#000000"/><text fill="#000000" font-family="sans-serif" font-size="8.4" lengthAdjust="spacing" textLength="27" x="613.35" y="207.7032">author</text><line style="stroke:#181818;stroke-width:0.3;" x1="573.6" x2="660.6" y1="214.044" y2="214.044"/><rect fill="none" height="3.6" style="stroke:#C82930;stroke-width:0.6;" width="3.6" x="577.8" y="221.2644"/><text fill="#000000" font-family="sans-serif" font-size="8.4" lengthAdjust="spacing" textLength="70.2" x="585" y="225.4236">given_name TEXT</text><rect fill="none" height="3.6" style="stroke:#C82930;stroke-width:0.6;" width="3.6" x="577.8" y="232.7051"/><text fill="#000000" font-family="sans-serif" font-size="8.4" lengthAdjust="spacing" textLength="72.6" x="585" y="236.8643">family_name TEXT</text><rect fill="none" height="3.6" style="stroke:#C82930;stroke-width:0.6;" width="3.6" x="577.8" y="244.1459"/><text fill="#000000" font-family="sans-serif" font-size="8.4" lengthAdjust="spacing" textLength="42" x="585" y="248.3051">orcid TEXT</text><line style="stroke:#181818;stroke-width:0.3;" x1="573.6" x2="660.6" y1="253.1663" y2="253.1663"/></g><!--class author_affiliation_linking--><g id="elem_author_affiliation_linking"><rect codeLine="94" fill="#F1F1F1" height="63.1223" id="author_affiliation_linking" rx="1.5" ry="1.5" style="stroke:#181818;stroke-width:0.3;" width="119.4" x="615.6" y="4.2"/><ellipse cx="624.6" cy="13.8" fill="#ADD1B2" rx="6.6" ry="6.6" style="stroke:#181818;stroke-width:0.6;"/><path d="M624.2813,17.9531 Q623.2312,17.9531 622.5469,17.5125 Q621.8719,17.0625 621.5344,16.2562 Q621.2063,15.4406 621.2063,14.3625 Q621.2063,13.1437 621.6,12.2719 Q621.9938,11.4 622.7625,10.9313 Q623.5313,10.4625 624.6563,10.4625 Q625.1906,10.4625 625.5938,10.575 Q625.9969,10.6781 626.4094,10.8844 L625.9219,12.0938 Q625.5469,11.9063 625.2188,11.8312 Q624.9,11.7563 624.6094,11.7563 Q623.9063,11.7563 623.4844,12.075 Q623.0625,12.3937 622.8844,12.9656 Q622.7063,13.5375 622.7063,14.2969 Q622.7063,15.5063 623.1375,16.0875 Q623.5688,16.6594 624.525,16.6594 Q624.8813,16.6594 625.2563,16.5656 Q625.6313,16.4719 626.1281,16.2469 L626.1281,17.5781 Q625.6875,17.7656 625.2094,17.8594 Q624.7406,17.9531 624.2813,17.9531 Z " fill="#000000"/><text fill="#000000" font-family="sans-serif" font-size="8.4" lengthAdjust="spacing" textLength="100.2" x="633" y="17.0592">author_affiliation_linking</text><line style="stroke:#181818;stroke-width:0.3;" x1="616.2" x2="734.4" y1="23.4" y2="23.4"/><text fill="#000000" font-family="sans-serif" font-size="8.4" lengthAdjust="spacing" textLength="82.8" x="619.2" y="34.7796">author INT PRIMARY</text><text fill="#000000" font-family="sans-serif" font-size="8.4" lengthAdjust="spacing" textLength="94.2" x="619.2" y="46.2203">affiliation INT PRIMARY</text><text fill="#000000" font-family="sans-serif" font-size="8.4" lengthAdjust="spacing" textLength="66" x="619.2" y="57.6611">composite index</text><line style="stroke:#181818;stroke-width:0.3;" x1="616.2" x2="734.4" y1="62.5223" y2="62.5223"/></g><!--class author_publication_linking--><g id="elem_author_publication_linking"><rect codeLine="100" fill="#F1F1F1" height="63.1223" id="author_publication_linking" rx="1.5" ry="1.5" style="stroke:#181818;stroke-width:0.3;" width="126.6" x="461.4" y="4.2"/><ellipse cx="470.4" cy="13.8" fill="#ADD1B2" rx="6.6" ry="6.6" style="stroke:#181818;stroke-width:0.6;"/><path d="M470.0812,17.9531 Q469.0313,17.9531 468.3469,17.5125 Q467.6719,17.0625 467.3344,16.2562 Q467.0062,15.4406 467.0062,14.3625 Q467.0062,13.1437 467.4,12.2719 Q467.7938,11.4 468.5625,10.9313 Q469.3312,10.4625 470.4562,10.4625 Q470.9906,10.4625 471.3937,10.575 Q471.7969,10.6781 472.2094,10.8844 L471.7219,12.0938 Q471.3469,11.9063 471.0187,11.8312 Q470.7,11.7563 470.4094,11.7563 Q469.7062,11.7563 469.2844,12.075 Q468.8625,12.3937 468.6844,12.9656 Q468.5062,13.5375 468.5062,14.2969 Q468.5062,15.5063 468.9375,16.0875 Q469.3688,16.6594 470.325,16.6594 Q470.6813,16.6594 471.0563,16.5656 Q471.4313,16.4719 471.9281,16.2469 L471.9281,17.5781 Q471.4875,17.7656 471.0094,17.8594 Q470.5406,17.9531 470.0812,17.9531 Z " fill="#000000"/><text fill="#000000" font-family="sans-serif" font-size="8.4" lengthAdjust="spacing" textLength="107.4" x="478.8" y="17.0592">author_publication_linking</text><line style="stroke:#181818;stroke-width:0.3;" x1="462" x2="587.4" y1="23.4" y2="23.4"/><text fill="#000000" font-family="sans-serif" font-size="8.4" lengthAdjust="spacing" textLength="82.8" x="465" y="34.7796">author INT PRIMARY</text><text fill="#000000" font-family="sans-serif" font-size="8.4" lengthAdjust="spacing" textLength="101.4" x="465" y="46.2203">publication INT PRIMARY</text><text fill="#000000" font-family="sans-serif" font-size="8.4" lengthAdjust="spacing" textLength="66" x="465" y="57.6611">composite index</text><line style="stroke:#181818;stroke-width:0.3;" x1="462" x2="587.4" y1="62.5223" y2="62.5223"/></g><!--class keyword--><g id="elem_keyword"><rect codeLine="112" fill="#F1F1F1" height="63.1223" id="keyword" rx="1.5" ry="1.5" style="stroke:#181818;stroke-width:0.3;" width="145.2" x="406.5" y="194.844"/><ellipse cx="459.75" cy="204.444" fill="#ADD1B2" rx="6.6" ry="6.6" style="stroke:#181818;stroke-width:0.6;"/><path d="M459.4313,208.5971 Q458.3812,208.5971 457.6969,208.1565 Q457.0219,207.7065 456.6844,206.9003 Q456.3563,206.0846 456.3563,205.0065 Q456.3563,203.7878 456.75,202.9159 Q457.1438,202.044 457.9125,201.5753 Q458.6813,201.1065 459.8063,201.1065 Q460.3406,201.1065 460.7438,201.219 Q461.1469,201.3221 461.5594,201.5284 L461.0719,202.7378 Q460.6969,202.5503 460.3688,202.4753 Q460.05,202.4003 459.7594,202.4003 Q459.0563,202.4003 458.6344,202.719 Q458.2125,203.0378 458.0344,203.6096 Q457.8563,204.1815 457.8563,204.9409 Q457.8563,206.1503 458.2875,206.7315 Q458.7188,207.3034 459.675,207.3034 Q460.0313,207.3034 460.4063,207.2096 Q460.7813,207.1159 461.2781,206.8909 L461.2781,208.2221 Q460.8375,208.4096 460.3594,208.5034 Q459.8906,208.5971 459.4313,208.5971 Z " fill="#000000"/><text fill="#000000" font-family="sans-serif" font-size="8.4" lengthAdjust="spacing" textLength="33.6" x="472.05" y="207.7032">keyword</text><line style="stroke:#181818;stroke-width:0.3;" x1="407.1" x2="551.1" y1="214.044" y2="214.044"/><text fill="#000000" font-family="sans-serif" font-size="8.4" lengthAdjust="spacing" textLength="138" x="410.1" y="225.4236">id INT AUTOINCREMENT PRIMARY</text><text fill="#000000" font-family="sans-serif" font-size="8.4" lengthAdjust="spacing" textLength="89.4" x="410.1" y="236.8643">string TEXT NOT NULL</text><text fill="#000000" font-family="sans-serif" font-size="8.4" lengthAdjust="spacing" textLength="30" x="410.1" y="248.3051">qid INT</text><line style="stroke:#181818;stroke-width:0.3;" x1="407.1" x2="551.1" y1="253.1663" y2="253.1663"/></g><!--class publication_keyword_linking--><g id="elem_publication_keyword_linking"><rect codeLine="118" fill="#F1F1F1" height="63.1223" id="publication_keyword_linking" rx="1.5" ry="1.5" style="stroke:#181818;stroke-width:0.3;" width="133.2" x="245.1" y="4.2"/><ellipse cx="254.1" cy="13.8" fill="#ADD1B2" rx="6.6" ry="6.6" style="stroke:#181818;stroke-width:0.6;"/><path d="M253.7813,17.9531 Q252.7313,17.9531 252.0469,17.5125 Q251.3719,17.0625 251.0344,16.2562 Q250.7062,15.4406 250.7062,14.3625 Q250.7062,13.1437 251.1,12.2719 Q251.4937,11.4 252.2625,10.9313 Q253.0313,10.4625 254.1563,10.4625 Q254.6906,10.4625 255.0938,10.575 Q255.4969,10.6781 255.9094,10.8844 L255.4219,12.0938 Q255.0469,11.9063 254.7188,11.8312 Q254.4,11.7563 254.1094,11.7563 Q253.4063,11.7563 252.9844,12.075 Q252.5625,12.3937 252.3844,12.9656 Q252.2062,13.5375 252.2062,14.2969 Q252.2062,15.5063 252.6375,16.0875 Q253.0688,16.6594 254.025,16.6594 Q254.3813,16.6594 254.7563,16.5656 Q255.1313,16.4719 255.6281,16.2469 L255.6281,17.5781 Q255.1875,17.7656 254.7094,17.8594 Q254.2406,17.9531 253.7813,17.9531 Z " fill="#000000"/><text fill="#000000" font-family="sans-serif" font-size="8.4" lengthAdjust="spacing" textLength="114" x="262.5" y="17.0592">publication_keyword_linking</text><line style="stroke:#181818;stroke-width:0.3;" x1="245.7" x2="377.7" y1="23.4" y2="23.4"/><text fill="#000000" font-family="sans-serif" font-size="8.4" lengthAdjust="spacing" textLength="89.4" x="248.7" y="34.7796">keyword INT PRIMARY</text><text fill="#000000" font-family="sans-serif" font-size="8.4" lengthAdjust="spacing" textLength="101.4" x="248.7" y="46.2203">publication INT PRIMARY</text><text fill="#000000" font-family="sans-serif" font-size="8.4" lengthAdjust="spacing" textLength="66" x="248.7" y="57.6611">composite index</text><line style="stroke:#181818;stroke-width:0.3;" x1="245.7" x2="377.7" y1="62.5223" y2="62.5223"/></g><!--link publication to Status--><g id="link_publication_Status"><path codeLine="44" d="M308.1,349.68 C308.1,381.048 308.1,412.704 308.1,436.89 " fill="none" id="publication-Status" style="stroke:#181818;stroke-width:0.6;"/></g><!--link publication to Type--><g id="link_publication_Type"><path codeLine="45" d="M230.412,337.272 C227.112,341.436 223.8,345.522 220.5,349.494 C210.108,362.004 198.792,374.79 187.35,387.222 " fill="none" id="publication-Type" style="stroke:#181818;stroke-width:0.6;"/></g><!--link publication to Language--><g id="link_publication_Language"><path codeLine="46" d="M385.698,336.642 C396.858,352.914 408.084,369.57 418.5,385.494 C422.01,390.852 425.58,396.42 429.15,402.042 " fill="none" id="publication-Language" style="stroke:#181818;stroke-width:0.6;"/></g><!--link author_affiliation_linking to author--><g id="link_author_affiliation_linking_author"><path codeLine="105" d="M664.3443,72.0163 C653.5563,107.1283 638.9152,154.7895 628.1092,189.9735 " fill="none" id="author_affiliation_linking-author" style="stroke:#181818;stroke-width:0.6;"/><line style="stroke:#181818;stroke-width:0.6;" x1="664.3443" x2="661.1657" y1="72.0163" y2="67.428"/><line style="stroke:#181818;stroke-width:0.6;" x1="664.3443" x2="670.3423" y1="72.0163" y2="67.428"/><line style="stroke:#181818;stroke-width:0.6;" x1="664.3443" x2="665.754" y1="72.0163" y2="67.428"/><line style="stroke:#181818;stroke-width:0.6;" x1="628.1092" x2="631.2885" y1="189.9735" y2="194.562"/><line style="stroke:#181818;stroke-width:0.6;" x1="628.1092" x2="622.1115" y1="189.9735" y2="194.562"/><line style="stroke:#181818;stroke-width:0.6;" x1="628.1092" x2="626.7" y1="189.9735" y2="194.562"/></g><!--link author_affiliation_linking to affiliation--><g id="link_author_affiliation_linking_affiliation"><path codeLine="106" d="M686.3653,72.0121 C697.2673,107.1241 712.0612,154.7937 722.9812,189.9777 " fill="none" id="author_affiliation_linking-affiliation" style="stroke:#181818;stroke-width:0.6;"/><line style="stroke:#181818;stroke-width:0.6;" x1="686.3653" x2="680.3579" y1="72.0121" y2="67.428"/><line style="stroke:#181818;stroke-width:0.6;" x1="686.3653" x2="689.5261" y1="72.0121" y2="67.428"/><line style="stroke:#181818;stroke-width:0.6;" x1="686.3653" x2="684.942" y1="72.0121" y2="67.428"/><line style="stroke:#181818;stroke-width:0.6;" x1="722.9812" x2="728.9883" y1="189.9777" y2="194.562"/><line style="stroke:#181818;stroke-width:0.6;" x1="722.9812" x2="719.8197" y1="189.9777" y2="194.562"/><line style="stroke:#181818;stroke-width:0.6;" x1="722.9812" x2="724.404" y1="189.9777" y2="194.562"/></g><!--link author_publication_linking to author--><g id="link_author_publication_linking_author"><path codeLine="107" d="M545.1042,71.7633 C551.3742,82.9293 555.966,91.494 561.9,103.32 C577.284,133.962 591.3016,165.3922 602.0656,190.3582 " fill="none" id="author_publication_linking-author" style="stroke:#181818;stroke-width:0.6;"/><line style="stroke:#181818;stroke-width:0.6;" x1="545.1042" x2="538.5687" y1="71.7633" y2="67.578"/><line style="stroke:#181818;stroke-width:0.6;" x1="545.1042" x2="546.9393" y1="71.7633" y2="67.578"/><line style="stroke:#181818;stroke-width:0.6;" x1="545.1042" x2="542.754" y1="71.7633" y2="67.578"/><line style="stroke:#181818;stroke-width:0.6;" x1="602.0656" x2="608.3738" y1="190.3582" y2="194.766"/><line style="stroke:#181818;stroke-width:0.6;" x1="602.0656" x2="599.5582" y1="190.3582" y2="194.766"/><line style="stroke:#181818;stroke-width:0.6;" x1="602.0656" x2="603.966" y1="190.3582" y2="194.766"/></g><!--link author_publication_linking to publication--><g id="link_author_publication_linking_publication"><path codeLine="108" d="M456.7952,64.3432 C434.8652,75.0832 415.35,86.82 396.3,103.32 C392.634,106.494 392.4457,106.4655 388.9297,109.9575 " fill="none" id="author_publication_linking-publication" style="stroke:#181818;stroke-width:0.6;"/><line style="stroke:#181818;stroke-width:0.6;" x1="456.7952" x2="461.106" y1="64.3432" y2="57.9212"/><line style="stroke:#181818;stroke-width:0.6;" x1="456.7952" x2="461.106" y1="64.3432" y2="66.5428"/><line style="stroke:#181818;stroke-width:0.6;" x1="456.7952" x2="461.106" y1="64.3432" y2="62.232"/><line style="stroke:#181818;stroke-width:0.6;" x1="388.9297" x2="385.524" y1="109.9575" y2="116.7457"/><line style="stroke:#181818;stroke-width:0.6;" x1="388.9297" x2="385.524" y1="109.9575" y2="109.9343"/><line style="stroke:#181818;stroke-width:0.6;" x1="388.9297" x2="385.524" y1="109.9575" y2="113.34"/></g><!--link publication_funder_linking to publication--><g id="link_publication_funder_linking_publication"><path codeLine="109" d="M189.8906,70.811 C201.1406,81.755 210.03,91.05 220.5,103.32 C223.806,107.196 224.1061,107.4654 227.4001,111.5394 " fill="none" id="publication_funder_linking-publication" style="stroke:#181818;stroke-width:0.6;"/><line style="stroke:#181818;stroke-width:0.6;" x1="189.8906" x2="183.103" y1="70.811" y2="67.464"/><line style="stroke:#181818;stroke-width:0.6;" x1="189.8906" x2="189.797" y1="70.811" y2="67.464"/><line style="stroke:#181818;stroke-width:0.6;" x1="189.8906" x2="186.45" y1="70.811" y2="67.464"/><line style="stroke:#181818;stroke-width:0.6;" x1="227.4001" x2="230.418" y1="111.5394" y2="112.2541"/><line style="stroke:#181818;stroke-width:0.6;" x1="227.4001" x2="230.418" y1="111.5394" y2="118.2899"/><line style="stroke:#181818;stroke-width:0.6;" x1="227.4001" x2="230.418" y1="111.5394" y2="115.272"/></g><!--link publication_funder_linking to funder--><g id="link_publication_funder_linking_funder"><path codeLine="110" d="M150.5402,72.2194 C148.3082,109.3834 145.1822,161.2827 143.1122,195.6927 " fill="none" id="publication_funder_linking-funder" style="stroke:#181818;stroke-width:0.6;"/><line style="stroke:#181818;stroke-width:0.6;" x1="150.5402" x2="146.0366" y1="72.2194" y2="67.428"/><line style="stroke:#181818;stroke-width:0.6;" x1="150.5402" x2="155.6194" y1="72.2194" y2="67.428"/><line style="stroke:#181818;stroke-width:0.6;" x1="150.5402" x2="150.828" y1="72.2194" y2="67.428"/><line style="stroke:#181818;stroke-width:0.6;" x1="143.1122" x2="147.6153" y1="195.6927" y2="200.484"/><line style="stroke:#181818;stroke-width:0.6;" x1="143.1122" x2="138.0327" y1="195.6927" y2="200.484"/><line style="stroke:#181818;stroke-width:0.6;" x1="143.1122" x2="142.824" y1="195.6927" y2="200.484"/></g><!--link publication_keyword_linking to publication--><g id="link_publication_keyword_linking_publication"><path codeLine="123" d="M311.0206,72.2271 C310.8226,82.6191 310.7725,85.3149 310.5205,98.3889 " fill="none" id="publication_keyword_linking-publication" style="stroke:#181818;stroke-width:0.6;"/><line style="stroke:#181818;stroke-width:0.6;" x1="311.0206" x2="306.3129" y1="72.2271" y2="67.428"/><line style="stroke:#181818;stroke-width:0.6;" x1="311.0206" x2="315.9111" y1="72.2271" y2="67.428"/><line style="stroke:#181818;stroke-width:0.6;" x1="311.0206" x2="311.112" y1="72.2271" y2="67.428"/><line style="stroke:#181818;stroke-width:0.6;" x1="310.5205" x2="315.2271" y1="98.3889" y2="103.188"/><line style="stroke:#181818;stroke-width:0.6;" x1="310.5205" x2="305.6289" y1="98.3889" y2="103.188"/><line style="stroke:#181818;stroke-width:0.6;" x1="310.5205" x2="310.428" y1="98.3889" y2="103.188"/></g><!--link publication_keyword_linking to keyword--><g id="link_publication_keyword_linking_keyword"><path codeLine="124" d="M359.7179,70.5484 C373.2179,81.1144 383.844,90.534 395.7,103.32 C421.944,131.616 443.6045,164.682 459.0845,190.626 " fill="none" id="publication_keyword_linking-keyword" style="stroke:#181818;stroke-width:0.6;"/><line style="stroke:#181818;stroke-width:0.6;" x1="359.7179" x2="352.9796" y1="70.5484" y2="67.59"/><line style="stroke:#181818;stroke-width:0.6;" x1="359.7179" x2="358.8964" y1="70.5484" y2="67.59"/><line style="stroke:#181818;stroke-width:0.6;" x1="359.7179" x2="355.938" y1="70.5484" y2="67.59"/><line style="stroke:#181818;stroke-width:0.6;" x1="459.0845" x2="465.666" y1="190.626" y2="194.748"/><line style="stroke:#181818;stroke-width:0.6;" x1="459.0845" x2="457.422" y1="190.626" y2="194.748"/><line style="stroke:#181818;stroke-width:0.6;" x1="459.0845" x2="461.544" y1="190.626" y2="194.748"/></g><!--SRC=[fLN1Rjiu4BthAuHSkZsewLu3x86H6LkxDYL8SjEU15gYRMuaKajIJeCY_rvA96t9Th9Th84Oy9kdUJFpPfGFUwLQUNTxszQOgQwfFvMykIrhB6LGKRmJkF4yZx2kyVENblW_F5z_G9f7uH8MVyRh586b_uT_WuMYPKs2ltad6Avl9Zm47xC4930TCnbvbYrkYJ3S-pZ-gmzlE7yoIBW0IMwUAVUuLOuPnkW1fX25i3Wc7H859MTR8WWhYM7EG0uocFU42YiiYR9ub6KmpK4UnMW8KYc9K5XHpWnZ1T0w2zCe6HvkCEjaAMXhdqzX4gT3H92MYoFw9OAF1ZrGyZn62zUU2GMdBhCOpVk0v6ndaGJ2S35WBI7btg3v0cPHrgDgJoILDzwhDIRJXNVIMfEixvTHje2pdfbqcvhAFQbC2gY31LX0C2lYXo998pJq0Djku-CzmPNFjtuhABCDHKYJO3Q8Han7Y9JMs324sfj119GbqUPOZMnzlufo6ygwJKFL47F5BZ7RTNZdDWcYULzkJoR7_X_Xp6Bo-UWaib25hKLBRT_WNerTlI5S0ZIBmXwbRWaUG1h33FRO5dE3pLC8qOdxv1Rs8K9EPqkj3ehJHpYFmA35k70c7IlIMsomnHhDGMgP-yu-FuVfoa2xVeFr8DhUbdBODZy8h7_dQ7zkvvWRdkSD5-gFmsQUWOytKWbSAZ-7NtEBwRjGc38Y2aLLJSQXYXvmGQi1qgtgl_LowMASZgdwIDZuT-siF62X3rJyzlldpnzjZ74raT7MRuYuH0g-BLgTGuv3FJ3vhTU8LAxA4-XwB_Hnapk__rQq8NhKY3CovkaRc8ZBJhyk3bJoAJeOSNUjdukvAMtFdNadJkJqswzW6tPrdWTUTutDykeyt7QiqiKv-tIJ-Z1N8FtcWtKUHoXCuGgYuzImJN3A_Nfb6mgJjQWfUw9iTym-NfZ- -gsKZTfIpWFwFqBB9TM6Ff6NNixguUsMrdIwVLHd-7ubjMuh-gKcSAVs_3IE7JqGFL3tW2iKDxH-kO2vADsEdEKhHhMweHW9gtTUyRYtj-SnT7kXDVRXLxJUC-LIw-s6_DSW-655_frs2dXlrtqjvPkqKS1xPnV_CzTWRiXw1v-vgEo6cBsQdifaWFfbs2UwFCT_x4fUFHyhChNFAVy__zwHUNyqLyaMz7u2]--></g></svg>